<svg xmlns="http://www.w3.org/2000/svg" width="147" height="147" viewBox="0 0 147 147"><defs><style>.a{fill:#abcbd0;}.b,.c{fill:#fff;}.b{font-size:13px;font-family:Arial-BoldMT, Arial;font-weight:700;letter-spacing:0.009em;}</style></defs><g transform="translate(0 0)"><rect class="a" width="147" height="147" rx="8" transform="translate(0 0)"/><text class="b" transform="translate(19 135)"><tspan x="0" y="0">JUDUL BERITA</tspan></text><path class="c" d="M117.5,11.519l.014.014v91.926l-.014.014H10.247l-.014-.014V11.533l.014-.014Zm.014-7.663H10.233a7.685,7.685,0,0,0-7.663,7.663v91.954a7.685,7.685,0,0,0,7.663,7.663H117.513a7.685,7.685,0,0,0,7.663-7.663V11.519a7.685,7.685,0,0,0-7.663-7.663Zm-15.326,26.82A11.494,11.494,0,1,1,90.693,19.182,11.494,11.494,0,0,1,102.187,30.676ZM109.85,95.81H17.9V80.484l26.82-45.977L75.367,72.821H83.03l26.82-22.988Z" transform="translate(9.647 7.354)"/></g></svg>